<?xml version="1.0" encoding="UTF-8" standalone="no"?>
<!-- Created with Inkscape (http://www.inkscape.org/) -->

<svg
   width="210mm"
   height="297mm"
   viewBox="0 0 210 297"
   version="1.1"
   id="svg1"
   xml:space="preserve"
   inkscape:version="1.4.3 (0d15f75, 2025-12-25)"
   sodipodi:docname="orpheus-boot-design3.svg"
   xmlns:inkscape="http://www.inkscape.org/namespaces/inkscape"
   xmlns:sodipodi="http://sodipodi.sourceforge.net/DTD/sodipodi-0.dtd"
   xmlns="http://www.w3.org/2000/svg"
   xmlns:svg="http://www.w3.org/2000/svg"><sodipodi:namedview
     id="namedview1"
     pagecolor="#ffffff"
     bordercolor="#000000"
     borderopacity="0.25"
     inkscape:showpageshadow="2"
     inkscape:pageopacity="0.0"
     inkscape:pagecheckerboard="0"
     inkscape:deskcolor="#d1d1d1"
     inkscape:document-units="mm"
     inkscape:zoom="0.48189506"
     inkscape:cx="860.14578"
     inkscape:cy="374.56288"
     inkscape:window-width="1920"
     inkscape:window-height="974"
     inkscape:window-x="-11"
     inkscape:window-y="-11"
     inkscape:window-maximized="1"
     inkscape:current-layer="layer1" /><defs
     id="defs1" /><g
     inkscape:label="Layer 1"
     inkscape:groupmode="layer"
     id="layer1"><g
       id="g1"
       transform="translate(-0.741035,12.043949)"><path
         style="fill:#fefefe"
         d="M 0.83730447,91.560406 V 15.493755 H 102.80833 204.77935 V 91.560406 167.62706 H 102.80833 0.83730447 Z"
         id="path3" /><path
         style="fill:#6be818"
         d="m 37.329298,144.79972 c -2.696486,-0.46278 -4.682853,-1.97889 -4.681519,-3.57319 l 4.72e-4,-0.56451 1.101173,-2.7418 c 0.605645,-1.50799 1.101173,-2.79495 1.101173,-2.85992 0,-0.065 -1.192875,-0.11917 -2.650834,-0.12043 -10.708901,-0.009 -21.933833,-3.13099 -30.3646308,-8.44455 l -0.99890406,-0.62957 0.001692,-32.595546 0.001692,-32.59555 0.44638916,0.167495 c 0.2455141,0.09212 1.2209834,0.597672 2.1677097,1.123446 8.842693,4.910872 13.559396,7.142431 21.688637,10.261291 7.302659,2.801734 17.220314,5.85621 21.275521,6.552512 4.208493,0.722622 5.214149,1.03584 7.268985,2.26397 1.4637,0.874821 2.76874,2.092332 3.543269,3.305619 0.291332,0.456367 0.593234,0.806907 0.670894,0.778979 0.316109,-0.113682 5.302573,-12.531821 9.39782,-23.404051 2.491252,-6.61388 3.131224,-8.265474 3.768021,-9.724243 l 0.310061,-0.710287 0.589958,-0.37301 c 4.650218,-2.940169 14.473213,-4.009149 23.680757,-2.57704 5.927426,0.921931 9.622856,2.006989 18.039436,5.296765 15.4809,6.050994 21.74352,7.33683 34.09313,6.999973 14.91579,-0.406853 27.31758,-3.870901 45.08406,-12.592803 3.33307,-1.636268 3.92816,-1.713188 3.92816,-0.507744 0,1.012888 -1.34831,4.335799 -3.81486,9.401689 l -1.26731,2.602852 0.16566,0.0945 c 0.0911,0.05197 1.89786,0.14136 4.01497,0.198635 4.35651,0.117858 4.61353,0.18034 4.61658,1.122263 0.005,1.616083 -10.68384,12.295588 -16.65937,16.644459 -12.09304,8.801087 -26.97052,13.221684 -44.47892,13.216178 -11.59916,-0.0036 -19.99027,-1.274548 -35.80346,-5.422722 -5.677065,-1.489227 -6.641103,-1.723746 -9.777102,-2.378445 -5.316838,-1.109989 -8.423573,-1.518573 -12.531213,-1.648048 l -2.822966,-0.08898 -2.443384,0.237782 c -2.585929,0.251654 -6.251493,0.899051 -8.273806,1.461285 l -1.215501,0.337929 -0.822068,2.079947 c -0.452137,1.143971 -1.067984,2.681647 -1.368549,3.417057 -0.671675,1.643429 -0.705316,1.38905 0.329262,2.489748 1.521405,1.61864 2.405214,3.654101 2.535297,5.838936 l 0.07129,1.197436 -0.235083,1.253931 c -0.139214,0.742562 -0.468066,1.768912 -0.80639,2.516752 l -0.571307,1.26283 -0.973992,1.06807 -0.973992,1.06808 -1.156356,0.60331 c -0.635995,0.33182 -1.283568,0.60433 -1.43905,0.60558 -0.155483,0.001 -0.360163,0.0554 -0.454846,0.12021 l -0.17215,0.11793 0.29367,1.25291 0.293671,1.25291 -0.08232,1.33825 c -0.100489,1.63356 -0.374792,2.78024 -1.006346,4.20686 l -0.48068,1.08581 -0.851608,0.92444 c -0.955289,1.03698 -2.237289,1.83701 -3.163099,1.97391 -0.339709,0.0502 -0.684576,0.13596 -0.766371,0.1905 l -0.148718,0.0992 0.200172,0.81152 c 0.445845,1.80751 0.193612,3.88611 -0.72045,5.93711 l -0.496588,1.11425 -0.838949,0.90164 c -1.467503,1.57715 -2.776516,2.04621 -5.492038,1.96794 l -1.623566,-0.0468 -0.594516,1.48568 c -5.211304,13.0229 -5.150962,12.88573 -5.779506,13.1383 -0.406425,0.16332 -1.462451,0.28179 -1.877267,0.21059 z"
         id="path2" /><path
         style="fill:#08130a"
         d="m 36.111849,144.37625 c -1.959932,-0.73521 -2.882357,-1.44386 -3.256985,-2.50219 l -0.223437,-0.63121 0.230055,-0.73611 c 0.12653,-0.40487 0.658438,-1.76717 1.182017,-3.02734 0.52358,-1.26016 0.93486,-2.34574 0.913957,-2.41239 -0.0209,-0.0667 -1.525227,-0.15241 -3.342942,-0.19056 -8.30306,-0.17427 -14.322706,-1.43896 -22.101595,-4.64343 -2.1553025,-0.88786 -7.0231469,-3.37221 -7.0231469,-3.58432 0,-0.0714 -0.2414252,-0.24722 -0.5365005,-0.39077 l -0.5365004,-0.26101 -0.076413,-0.4122 c -0.042027,-0.22671 -0.1824568,-0.52661 -0.3120663,-0.66645 l -0.23565383,-0.25424 0.19446505,-0.13281 0.19446508,-0.13281 -0.1721321,-0.002 -0.17213203,-0.002 v -1.04184 -1.04183 l 0.51639613,0.34268 c 6.9937803,4.64112 19.7358888,8.92432 28.3673618,9.53555 l 1.273777,0.0902 v -0.19895 c 0,-0.10942 -0.372088,-0.48204 -0.826863,-0.82806 -3.314388,-2.52173 -4.842183,-8.5299 -4.277614,-16.82203 1.022785,-15.022183 6.403721,-27.653582 14.250339,-33.451748 l 1.232086,-0.910436 -0.265998,-0.116707 C 40.960491,79.886509 39.322587,79.426114 37.467004,78.927598 28.684522,76.568122 18.130351,72.556575 10.553009,68.697829 8.2020841,67.500625 4.4255139,65.302753 1.3786202,63.358558 L 0.83730447,63.013149 v -1.103126 c 0,-0.60672 0.0538592,-1.103126 0.11968716,-1.103126 0.065828,0 2.06428097,1.06341 4.44100677,2.363134 13.1418916,7.186706 31.3191036,14.125882 41.2952826,15.764531 5.490483,0.901846 8.431125,2.440663 10.425101,5.455381 0.338539,0.511841 0.692102,0.93062 0.785697,0.93062 0.302754,0 5.421998,-12.698277 9.583085,-23.770828 2.415239,-6.42689 3.520233,-9.26545 3.830644,-9.840331 0.630816,-1.168275 5.958674,-3.075242 10.146146,-3.631549 l 1.790174,-0.237825 3.993463,-1.55e-4 3.993464,-1.56e-4 1.927879,0.246047 c 6.984766,0.891436 11.969986,2.266617 20.518136,5.659965 10.32884,4.100221 16.2884,5.821972 22.92799,6.624017 l 2.54756,0.307739 3.7869,0.08248 c 11.99074,0.261169 23.70885,-1.768564 35.35349,-6.123695 4.57239,-1.710088 8.00771,-3.235524 14.68168,-6.519334 1.42757,-0.702409 2.73901,-1.315946 2.91431,-1.363415 l 0.31874,-0.08631 0.28447,0.306915 0.28448,0.306915 -0.0819,0.48594 c -0.21222,1.258832 -2.02567,5.564171 -4.02085,9.545969 -0.61345,1.224254 -1.0647,2.28057 -1.00278,2.347369 0.0619,0.0668 1.92365,0.179221 4.1372,0.249826 l 4.02462,0.128372 0.26491,0.258645 c 0.65509,0.639618 0.38879,1.142006 -2.1095,3.979536 -9.8301,11.164926 -19.90139,18.255877 -31.44912,22.142546 -9.58672,3.226643 -18.90634,4.595954 -29.51092,4.335971 C 126.51879,90.497319 117.4474,89.006296 103.22146,85.196888 96.289782,83.340729 91.796008,82.368567 87.247611,81.741181 l -2.20329,-0.303913 -3.924611,-0.07886 -3.92461,-0.07886 -2.095186,0.232474 c -2.077805,0.230545 -5.829056,0.914909 -7.681224,1.401333 l -0.963249,0.252972 -1.406238,3.49134 c -1.672752,4.153029 -1.604271,3.568162 -0.546374,4.666352 4.481632,4.652325 2.825883,12.996081 -3.001634,15.126031 l -1.106183,0.40431 0.01695,0.26425 c 0.0093,0.14533 0.122387,0.66538 0.251253,1.15565 0.139646,0.53129 0.232797,1.40157 0.230579,2.15423 l -0.0037,1.26283 -0.359111,1.33311 c -0.874802,3.2475 -2.966405,5.56579 -5.372796,5.95512 -0.770577,0.12467 -0.785139,0.15242 -0.540391,1.02981 0.113529,0.40698 0.200157,1.32018 0.200157,2.10999 v 1.39247 l -0.287178,0.92386 c -1.009807,3.24859 -2.883186,5.07349 -5.615507,5.47021 l -1.143177,0.16598 -1.046059,-0.16785 c -1.344414,-0.21573 -0.733538,-1.27477 -4.063012,7.0438 -0.948445,2.36966 -2.003682,4.95444 -2.344972,5.74396 l -0.620527,1.4355 -0.381388,0.26961 -0.381387,0.26961 -0.905984,0.0445 -0.905983,0.0445 z m 1.535105,-3.01395 c 0.122449,-0.14598 0.711326,-1.39952 1.308615,-2.78565 0.597289,-1.38612 2.185369,-5.02007 3.529066,-8.07544 l 2.443086,-5.55522 -0.267885,-0.38749 c -0.443114,-0.64096 -0.636731,-0.55733 -1.236857,0.53421 -1.047485,1.90522 -7.608443,15.57205 -7.608443,15.8488 0,0.50175 1.479514,0.8415 1.832418,0.42079 z m -1.275313,-10.68596 c 1.416101,-0.68166 3.097677,-2.56309 4.927264,-5.51287 l 1.043106,-1.68177 -0.144824,-0.24961 c -0.158323,-0.27289 -0.728661,-0.39559 -1.220156,-0.2625 -0.194954,0.0528 -0.665989,0.62982 -1.252573,1.53442 -1.16774,1.80084 -2.947888,3.74665 -3.907775,4.27142 l -0.720341,0.39382 h -0.747605 -0.747605 l -0.649045,-0.33785 c -1.939609,-1.00964 -3.237075,-3.78689 -3.696371,-7.91215 l -0.216897,-1.94811 0.07833,-2.7485 C 29.54511,101.20661 36.302788,85.9999 43.788509,83.207876 l 0.908038,-0.338679 1.514762,0.0026 1.514762,0.0026 1.032792,0.279337 c 1.974237,0.533967 3.620202,1.567707 4.854522,3.048857 0.669604,0.803507 1.8072,3.107907 1.732254,3.508985 l -0.04576,0.244877 -1.228931,0.342794 c -3.00698,0.838756 -6.83563,3.798437 -7.9963,6.18142 l -0.483017,0.991686 v 0.621115 0.621116 l 0.392397,0.423349 c 0.215819,0.232842 0.605993,0.46658 0.867053,0.519419 l 0.474655,0.09607 1.381796,-0.593928 c 4.710371,-2.02463 8.401548,-0.712697 8.715958,3.097856 l 0.07968,0.96569 0.665186,0.3558 0.665187,0.3558 0.918428,0.005 0.918428,0.005 0.688529,-0.3854 c 1.706613,-0.95527 3.007929,-3.23464 3.294083,-5.769873 l 0.09347,-0.828148 -0.202476,-1.047682 c -0.373531,-1.932771 -1.630558,-3.855458 -3.052859,-4.669503 -0.79187,-0.453222 -0.796293,-0.420152 0.42696,-3.192376 0.572633,-1.297742 1.266679,-2.877651 1.542324,-3.510909 l 0.501172,-1.151377 -0.142926,-0.1542 c -0.215709,-0.232725 -1.272203,8.56e-4 -1.635358,0.361562 -0.173086,0.171919 -0.623911,1.04799 -1.001833,1.946825 -2.077073,4.940026 -1.925796,4.722902 -3.18169,4.566602 L 57.119367,90.000589 57.016295,89.777738 C 56.959605,89.655169 56.806928,89.153753 56.677011,88.66348 55.778884,85.274179 53.255215,82.734848 49.51624,81.458268 l -0.96394,-0.329114 -1.668624,-0.07775 -1.668625,-0.07775 -1.05614,0.253502 c -8.765787,2.104032 -16.191595,19.106564 -16.192656,37.075584 -4.14e-4,6.99831 1.554228,11.11934 4.702866,12.4663 l 0.735559,0.31467 1.17678,-0.056 1.17678,-0.056 z m 22.291955,-28.0105 c -0.0055,-0.10214 -0.0017,-0.66265 0.0085,-1.24559 0.04644,-2.646207 -1.971937,-4.596274 -5.505876,-5.319529 l -1.096236,-0.224356 -1.070323,0.14595 c -0.588677,0.08027 -1.473111,0.278642 -1.965409,0.44082 -1.443349,0.475484 -1.488966,0.276403 -0.228218,-0.995991 4.894613,-4.93983 11.484578,-5.112575 13.617556,-0.356962 l 0.440237,0.981538 0.0014,1.188541 0.0014,1.188542 -0.462563,1.072756 -0.462563,1.072761 -0.868417,0.89967 c -1.083922,1.12293 -2.377564,1.74134 -2.409547,1.15185 z m -8.833178,24.31631 c 0.908873,-0.48864 1.855177,-1.62307 2.257994,-2.7069 l 0.314827,-0.84708 0.0024,-1.93138 0.0024,-1.93138 -0.369059,-0.84952 c -0.43304,-0.99679 -1.476612,-2.2555 -2.200189,-2.65376 -0.672114,-0.36993 -0.733719,-0.51017 -0.387979,-0.88318 0.330867,-0.35696 0.311728,-0.78677 -0.03827,-0.85949 l -0.238225,-0.0495 -0.289897,0.5301 -0.289897,0.53009 -0.571942,-0.0927 c -0.837921,-0.13586 -0.868099,-0.22515 -0.457623,-1.35391 0.542953,-1.49305 0.487531,-1.67219 -0.517357,-1.67219 -0.55448,0 -0.799874,0.28826 -1.104205,1.29706 -0.128933,0.4274 -0.338289,0.90335 -0.465235,1.05769 l -0.230813,0.28061 -1.032792,0.18574 c -3.479692,0.62579 -7.298399,3.64831 -7.298399,5.7767 v 0.43842 l 0.440323,0.39973 0.440324,0.39973 0.902306,-0.0729 c 0.496269,-0.0401 1.382978,-0.18695 1.970465,-0.3264 l 1.068157,-0.25355 0.993954,0.32572 c 2.027787,0.66451 2.979956,1.47742 3.405774,2.90767 0.263182,0.88398 0.468932,0.9672 0.826574,0.33432 0.972113,-1.72024 -0.875536,-4.21794 -3.831725,-5.17982 l -1.013394,-0.32973 -1.293175,0.073 c -0.711247,0.0401 -1.293176,0.0224 -1.293176,-0.0395 0,-0.55557 2.516238,-2.00107 4.399695,-2.52751 l 1.163612,-0.32523 0.986177,0.0683 0.986177,0.0683 0.896725,0.45273 c 1.165882,0.58862 1.933946,1.35162 2.404007,2.38818 l 0.378966,0.83568 -0.0021,1.04527 -0.0021,1.04527 -0.350707,0.81712 c -0.683745,1.59307 -1.584699,2.34449 -3.011136,2.51134 l -0.757381,0.0886 -0.04049,0.30534 c -0.07651,0.577 0.788498,1.07341 1.906903,1.09433 l 0.627064,0.0117 z m 5.458776,-10.85285 0.658048,-0.2419 0.879658,-0.88779 0.879658,-0.88778 0.43588,-0.95524 0.43588,-0.95524 0.06594,-1.47736 0.06594,-1.47736 -0.315685,-1.05923 c -0.361302,-1.21228 -1.123359,-2.4088 -2.195998,-3.44798 l -0.734992,-0.71207 0.296872,-0.64131 c 0.374669,-0.80938 0.372995,-1.05439 -0.0092,-1.34319 -0.476442,-0.36003 -0.61203,-0.2879 -1.031326,0.54871 l -0.390919,0.77998 -0.615608,-0.0439 c -0.903264,-0.0645 -0.935541,-0.17432 -0.437428,-1.48871 0.596422,-1.57379 0.521338,-1.77656 -0.605795,-1.63601 l -0.390881,0.0487 -0.314579,0.50529 c -0.173018,0.27791 -0.382179,0.77932 -0.464802,1.11426 -0.08262,0.33493 -0.247014,0.72597 -0.365314,0.86896 l -0.21509,0.26 h -0.58933 c -3.455891,0 -8.857317,3.82068 -9.341996,6.60803 l -0.09111,0.52394 0.231429,0.52617 c 0.455019,1.03451 1.174388,1.16337 3.279058,0.58736 0.82464,-0.22568 1.744941,-0.37142 2.345526,-0.37142 h 0.988396 l 0.825803,0.30088 c 1.52747,0.55652 2.24138,1.46769 2.38336,3.0419 l 0.0804,0.8914 0.895086,0.47851 c 1.470815,0.78628 2.32496,0.92404 3.363099,0.54241 z m -2.997185,-1.19325 -0.253762,-0.0776 0.08933,-0.32072 c 0.04913,-0.17641 0.124526,-0.72774 0.167543,-1.22518 l 0.07821,-0.90445 -0.253145,-0.58123 c -0.13923,-0.31967 -0.565189,-0.91895 -0.946574,-1.33172 l -0.693428,-0.75049 -0.902145,-0.38846 c -1.719794,-0.74054 -3.936628,-0.8822 -5.35523,-0.34221 -0.740965,0.28205 -0.890396,0.15871 -0.597642,-0.49331 0.814264,-1.81351 4.938392,-3.87891 7.818957,-3.91581 l 1.23935,-0.0159 1.032793,0.52324 c 1.435912,0.72747 2.092188,1.39241 2.714028,2.74986 l 0.51843,1.13172 v 1.13752 1.13753 l -0.468761,0.99638 c -0.882082,1.87493 -2.797153,3.09624 -4.187957,2.67083 z M 147.97578,87.184428 c 16.63661,-1.999459 28.4213,-6.872765 39.8572,-16.482091 3.38226,-2.842034 8.92347,-8.260551 8.75261,-8.558812 -0.0351,-0.06137 -1.47473,-0.15795 -3.19905,-0.214623 -3.84493,-0.126369 -5.82039,-0.41155 -5.82039,-0.840242 0,-0.07749 0.64288,-1.19437 1.42862,-2.48195 1.39089,-2.279223 4.21731,-7.396008 4.21731,-7.634769 0,-0.265247 -0.49925,-0.07465 -2.17083,0.82873 -18.25664,9.866569 -42.29734,13.713013 -60.8295,9.732549 -5.57321,-1.197052 -10.23938,-2.680322 -18.86567,-5.996978 -9.31529,-3.581563 -14.844612,-4.9872 -21.436813,-5.449567 l -2.571138,-0.180335 -2.592823,0.173994 c -4.573761,0.306927 -7.80533,1.1073 -10.656529,2.639335 -1.274855,0.685018 -1.004206,0.09597 -3.988904,8.681498 -2.522213,7.255178 -5.045359,14.214347 -7.12427,19.649673 -0.28024,0.732689 -0.173927,0.808261 0.591191,0.420245 9.421868,-4.778139 20.407595,-4.581077 41.307116,0.740966 14.24039,3.626301 18.07346,4.291237 30.22639,5.243478 0.41656,0.03264 3.05018,0.03713 5.85249,0.01 l 5.09511,-0.04937 z m -13.83942,-1.726083 c -8.08408,-0.621701 -14.32164,-1.542604 -20.65585,-3.049593 -3.77738,-0.898689 -6.47058,-1.571272 -7.36725,-1.83985 -8.259563,-2.473994 -19.498041,-4.310493 -26.406361,-4.315109 l -3.684935,-0.0025 -1.892144,0.232663 c -1.040679,0.127964 -2.263948,0.328028 -2.718377,0.444586 -0.454429,0.116558 -1.260007,0.314297 -1.790173,0.43942 -0.530167,0.125123 -1.599068,0.439147 -2.375335,0.69783 -1.51465,0.504742 -1.634178,0.501123 -1.421308,-0.04303 0.356297,-0.910785 2.371095,-6.493229 3.452051,-9.564672 1.097908,-3.11961 4.490448,-12.671775 4.837391,-13.620344 0.37137,-1.015351 3.101825,-2.102674 6.925088,-2.757711 l 1.526443,-0.261525 4.475433,0.01117 4.475433,0.01117 2.340996,0.329796 c 3.336476,0.470039 6.207708,1.175583 10.741038,2.63938 1.90538,0.615241 3.75761,1.29654 9.84595,3.621593 12.39634,4.733989 22.12418,6.592052 33.18706,6.338884 14.02553,-0.320967 27.53353,-3.543998 39.92435,-9.526012 0.94107,-0.454327 1.73116,-0.826049 1.75575,-0.826049 0.23009,0 -0.23068,0.867196 -1.82332,3.431555 l -1.86803,3.007781 0.0874,0.383098 c 0.0481,0.210704 0.28291,0.602326 0.52188,0.870271 l 0.43449,0.487172 0.85196,0.2839 c 0.93864,0.312784 3.27411,0.631064 4.37313,0.595974 0.38682,-0.01235 0.76137,-0.01675 0.83235,-0.0098 0.76412,0.075 -6.84155,6.759786 -11.62747,10.219626 -8.43591,6.098499 -19.92902,10.183745 -32.56738,11.576136 l -2.20329,0.24274 -5.23282,0.04189 c -2.87804,0.02304 -6.0074,-0.01768 -6.95413,-0.09049 z m 11.87372,-4.060588 c 0.28216,-0.14711 0.79339,-0.533741 1.13607,-0.859178 l 0.62307,-0.591705 V 79.43242 78.917965 l -0.36437,-0.364325 -0.36438,-0.364325 -0.56514,0.0025 -0.56514,0.0025 -0.68853,0.440636 -0.68852,0.440636 -0.56359,0.0025 c -1.7374,0.0078 -3.70215,-2.736405 -4.04048,-5.64345 l -0.12127,-1.04194 0.18339,-0.750039 c 0.29549,-1.208494 1.14314,-2.166373 2.14008,-2.418372 l 0.35224,-0.08904 0.88138,0.449706 c 1.26563,0.645764 2.06333,0.289324 2.06333,-0.921969 v -0.55614 l -0.38663,-0.297022 c -0.21265,-0.163361 -0.64711,-0.409463 -0.96546,-0.546893 l -0.57884,-0.249871 -1.40995,0.05861 -1.40996,0.05861 -0.73526,0.434721 c -0.88647,0.524122 -2.02266,1.825358 -2.39806,2.746414 l -0.274,0.67227 -0.0706,1.451018 c -0.21681,4.455589 1.58519,7.61693 5.19528,9.114295 l 0.48594,0.201556 1.3082,-0.04271 1.30821,-0.04271 z m 8.64442,-1.218512 c 0.56804,-0.120009 1.81543,-0.37697 2.77198,-0.571024 2.75725,-0.559357 3.8178,-1.63625 2.517,-2.555792 l -0.33606,-0.237563 -0.65186,0.08303 c -0.35852,0.04567 -1.48842,0.258954 -2.51089,0.473971 -1.02246,0.215016 -2.23083,0.403334 -2.68526,0.418484 l -0.82623,0.02755 -0.24111,-1.039974 c -0.44068,-1.900744 -0.91933,-4.579995 -1.20764,-6.759829 l -0.28494,-2.154232 -0.49099,-0.499881 -0.491,-0.499881 -0.7655,0.06849 -0.76551,0.06849 -0.3377,0.423577 -0.33771,0.423577 0.0802,0.824938 c 0.1101,1.132343 0.69535,4.226774 1.32213,6.990496 0.28723,1.26654 0.59511,2.670504 0.68418,3.119922 0.17558,0.886019 0.31144,1.135623 0.83886,1.541186 l 0.34426,0.264725 1.1705,-0.09603 c 0.64377,-0.05281 1.63525,-0.194217 2.20329,-0.314225 z m -27.91076,-0.974224 c 1.00167,-0.575577 0.88733,-1.471525 -0.50192,-3.93291 -0.40883,-0.724336 -0.97506,-1.851819 -1.25828,-2.505516 -0.28323,-0.653698 -0.73374,-1.51052 -1.00114,-1.904048 l -0.48618,-0.715507 0.1859,-0.374751 c 0.10224,-0.206113 0.55554,-0.719828 1.00732,-1.141589 1.7795,-1.661233 2.35355,-2.956486 1.64777,-3.717933 -0.72408,-0.781196 -1.34505,-0.505588 -3.75779,1.66783 -1.01028,0.910076 -1.90615,1.654684 -1.99082,1.654684 h -0.15395 V 65.89534 63.555399 l -0.24767,-0.489415 c -0.33416,-0.660324 -0.9936,-1.069309 -1.72523,-1.069991 l -0.59584,-5.55e-4 -0.41745,0.45038 -0.41745,0.450379 0.0988,0.329601 c 0.69633,2.323723 -0.0121,9.499894 -1.18729,12.026007 -0.29375,0.631456 -0.5341,1.289983 -0.5341,1.463392 0,0.371527 0.83647,1.32555 1.16222,1.32555 1.13882,0 2.91141,-2.308096 3.36589,-4.382746 0.0895,-0.408561 0.23022,-0.926691 0.31272,-1.1514 l 0.14999,-0.408561 h 0.38515 c 0.69367,0 0.80367,0.154874 1.51354,2.131048 1.66638,4.638892 2.80825,5.916914 4.44584,4.975933 z m 40.64853,-1.93014 c 1.04473,-0.422387 1.9129,-1.183796 2.28863,-2.007177 l 0.32778,-0.718297 -0.0196,-1.411393 c -0.034,-2.444995 -1.24881,-8.095354 -1.86063,-8.654067 -0.17844,-0.162953 -0.51425,-0.259994 -0.89971,-0.259994 h -0.61502 l -0.40674,0.43883 -0.40675,0.438831 0.085,0.415434 c 0.0468,0.228488 0.23029,0.983705 0.40786,1.678259 0.6511,2.546712 1.30576,5.695172 1.30576,6.279831 v 0.600519 l -0.3419,0.483604 c -0.19011,0.268918 -0.61012,0.594122 -0.9461,0.732556 l -0.60421,0.248951 -0.55133,-0.303456 c -1.05801,-0.582329 -1.51881,-1.594488 -2.37616,-5.219219 -0.16428,-0.694554 -0.48132,-1.878053 -0.70453,-2.629996 l -0.40584,-1.367171 -0.35847,-0.304216 -0.35847,-0.304215 h -0.59054 -0.59054 l -0.42368,0.384626 c -0.51148,0.464327 -0.52288,0.72144 -0.0917,2.06674 0.18335,0.571986 0.65544,2.143089 1.0491,3.491341 1.35716,4.64818 2.19606,5.831912 4.40416,6.214473 0.93421,0.161856 1.78541,0.06835 2.68361,-0.294794 z m -54.87851,-0.756953 c 0.74357,-0.409911 1.10152,-0.916927 1.19859,-1.697717 l 0.0739,-0.594878 -0.37802,-0.320808 c -0.45702,-0.387844 -1.13775,-0.414223 -1.95885,-0.07591 l -0.59439,0.244903 -0.58071,-0.18434 c -0.73633,-0.233735 -1.29419,-0.790709 -1.64521,-1.642575 l -0.27549,-0.668555 -0.0704,-1.347625 -0.0704,-1.347625 0.23265,-1.252309 c 0.63185,-3.401063 2.06387,-4.973459 3.49519,-3.83782 0.31897,0.25307 0.81142,0.493429 1.09435,0.534133 l 0.51442,0.07401 0.37869,-0.322065 0.37869,-0.322064 v -0.664136 -0.664136 l -0.63242,-0.729437 c -0.37064,-0.427501 -0.8837,-0.83297 -1.23948,-0.979561 l -0.60706,-0.250125 -1.28654,0.0726 -1.28654,0.0726 -0.71155,0.417823 c -2.10123,1.23384 -3.26342,3.786516 -3.41466,7.500099 l -0.0756,1.857096 0.2152,1.088741 c 0.65813,3.329662 2.80817,5.339955 5.73899,5.365963 l 0.90034,0.008 z m -10.63663,-2.233449 c 0.87185,-0.940618 1.40332,-7.386414 0.9949,-12.066189 -0.23501,-2.692691 -0.53854,-3.419407 -1.72055,-4.119283 -2.006881,-1.188292 -3.036002,-0.08462 -5.64194,6.050662 -0.659433,1.552533 -1.600957,3.758763 -2.092277,4.902734 -0.491319,1.143971 -0.924946,2.285522 -0.963614,2.53678 l -0.07031,0.456834 0.437788,0.397431 0.437787,0.39743 h 0.529692 0.529691 l 0.389256,-0.354872 c 0.214091,-0.195179 0.695632,-1.0287 1.07009,-1.852268 0.808431,-1.778028 0.651606,-1.685913 2.275434,-1.336524 1.6325,0.351256 1.52482,0.168674 1.38268,2.34445 l -0.120625,1.846423 0.20632,0.430449 c 0.416209,0.868346 1.704508,1.068476 2.355678,0.365943 z m -3.234397,-8.020955 c -0.62484,-0.172982 -1.136072,-0.373433 -1.136072,-0.445446 0,-0.244391 1.644639,-3.597257 1.984384,-4.045491 l 0.337826,-0.445703 0.239929,0.254027 c 0.37298,0.394891 0.63749,3.65161 0.38059,4.685848 l -0.083,0.334277 -0.29378,-0.0115 c -0.161576,-0.0063 -0.805008,-0.15303 -1.429847,-0.326012 z m 77.774947,7.973161 c 3.10145,-0.993683 5.50619,-3.20896 5.50027,-5.066938 l -0.002,-0.711615 -0.30758,-0.580303 c -0.4262,-0.804122 -0.92218,-1.157042 -1.74609,-1.242454 -0.79208,-0.08211 -0.95681,-0.2355 -0.64813,-0.603501 1.0313,-1.229452 0.95438,-3.201696 -0.16448,-4.21741 l -0.43129,-0.391533 -0.77781,-0.104846 -0.77781,-0.104847 -1.39247,0.415369 c -1.79022,0.534014 -3.88446,1.345519 -4.45621,1.726747 l -0.44776,0.298563 v 0.36966 c 0,0.203314 0.27357,1.183979 0.60794,2.179257 0.33437,0.995277 0.80059,2.645288 1.03605,3.666691 1.09653,4.756629 1.48177,5.176427 4.00763,4.36716 z m -0.86174,-2.250071 c -0.27477,-0.339837 -0.65046,-1.59846 -0.69353,-2.323405 l -0.034,-0.572774 1.52542,-0.57125 1.52541,-0.57125 0.52333,0.155896 c 2.14746,0.639711 1.33415,2.753483 -1.45295,3.776211 -1.19034,0.436796 -1.13037,0.43221 -1.39365,0.106572 z m -1.41118,-4.958424 c -0.14125,-0.421155 -0.48289,-2.147605 -0.48485,-2.450152 l -0.002,-0.314469 0.72295,-0.326396 c 1.80659,-0.81563 3.14301,-0.459239 3.12793,0.834142 -0.0117,1.006084 -1.29548,2.116138 -2.73431,2.364365 l -0.56117,0.09681 z m -84.961762,5.427458 0.462268,-0.236664 0.271243,-0.617601 c 0.149184,-0.33968 0.491343,-1.553577 0.760353,-2.697548 1.499824,-6.378026 2.423219,-10.632529 2.423219,-11.164876 V 57.136093 L 92.772715,56.754997 C 92.407545,56.329892 91.651242,56.05481 90.844198,56.05356 l -0.534563,-8.29e-4 -0.430673,0.492665 c -0.476906,0.545555 -0.693702,1.220739 -1.266051,3.942945 -0.23265,1.106534 -0.461485,1.866947 -0.576111,1.914403 -0.277971,0.115081 -3.036604,-0.56754 -3.211294,-0.794633 l -0.148651,-0.193242 0.149296,-1.038141 c 0.08211,-0.570978 0.149297,-1.66816 0.149297,-2.438182 v -1.400041 l -0.298532,-0.409458 c -0.578645,-0.793653 -1.945245,-1.073434 -2.747096,-0.562406 -0.625462,0.398612 -0.890445,1.229824 -1.220611,3.828863 -0.314702,2.477311 -1.026511,6.316492 -1.59721,8.614646 -0.182935,0.736663 -0.332766,1.630209 -0.332957,1.985657 l -3.47e-4,0.64627 0.468199,0.50513 0.468199,0.50513 h 0.627647 0.627648 l 0.533927,-0.557129 0.533926,-0.557128 0.49593,-1.411393 c 0.272761,-0.776267 0.618564,-1.823089 0.76845,-2.326274 0.149887,-0.503184 0.345815,-1.062633 0.435396,-1.24322 l 0.162874,-0.328339 0.847116,0.100271 c 0.465914,0.05515 1.358349,0.207199 1.983188,0.337889 l 1.136072,0.237617 v 0.278466 c 0,0.153155 -0.22518,1.229109 -0.5004,2.391007 -0.27522,1.161899 -0.507599,2.402433 -0.516397,2.756742 l -0.016,0.644199 0.38637,0.358633 0.386369,0.358633 h 0.556759 c 0.306217,0 0.764779,-0.106499 1.019026,-0.236663 z M 25.211202,129.49292 C 17.489593,128.1394 8.5760482,124.88598 2.3525208,121.14957 1.6498401,120.7277 1.0214561,120.38253 0.95611195,120.38253 c -0.0661815,0 -0.11880748,-12.27324 -0.11880748,-27.707867 0,-15.239329 0.0303499,-27.707871 0.0674443,-27.707871 0.0370944,0 0.48635903,0.288927 0.99836583,0.642061 5.428079,3.743773 13.5226264,7.753233 21.6556194,10.726648 2.746748,1.004208 8.388827,2.929884 12.118096,4.13598 1.844853,0.59665 1.830147,0.566897 0.757381,1.532373 -6.922864,6.230493 -11.966241,20.316526 -12.28473,34.310966 l -0.07817,3.43495 0.166367,1.91348 c 0.270928,3.11611 0.705645,4.83211 1.737462,6.85848 0.261479,0.51351 0.475417,0.96479 0.475417,1.00283 0,0.078 -0.718365,0.0597 -1.239351,-0.0316 z"
         id="path1" /></g></g></svg>
